<svg width="43" height="44" viewBox="0 0 43 44" fill="none" xmlns="http://www.w3.org/2000/svg">
<path d="M3.11247 8.05815C2.51359 8.05815 1.97798 7.90958 1.50562 7.61244C1.04171 7.3153 0.674789 6.92053 0.404874 6.42813C0.134958 5.92724 0 5.37541 0 4.77264C0 4.17837 0.143393 3.63503 0.430178 3.14263C0.725399 2.64174 1.12184 2.24697 1.61949 1.95832C2.11715 1.66118 2.67807 1.51261 3.30225 1.51261C3.92643 1.51261 4.48735 1.65694 4.98501 1.94558C5.48266 2.22574 5.87489 2.61202 6.16167 3.10442C6.45689 3.59683 6.6045 4.1529 6.6045 4.77264V7.90533H5.41518V5.57492L5.84536 5.24382C5.84536 5.77018 5.72727 6.2456 5.4911 6.67009C5.26336 7.09457 4.94283 7.43416 4.52952 7.68885C4.12465 7.93505 3.6523 8.05815 3.11247 8.05815ZM3.30225 6.8611C3.69025 6.8611 4.0403 6.76772 4.35239 6.58094C4.66448 6.39417 4.90909 6.14373 5.08623 5.82961C5.26336 5.507 5.35192 5.15893 5.35192 4.78538C5.35192 4.40334 5.26336 4.05527 5.08623 3.74115C4.90909 3.42703 4.66448 3.17659 4.35239 2.98981C4.0403 2.79455 3.69025 2.69692 3.30225 2.69692C2.91425 2.69692 2.5642 2.79455 2.25211 2.98981C1.94845 3.17659 1.70384 3.42703 1.51828 3.74115C1.34114 4.05527 1.25258 4.40334 1.25258 4.78538C1.25258 5.15893 1.34114 5.507 1.51828 5.82961C1.70384 6.14373 1.94845 6.39417 2.25211 6.58094C2.5642 6.76772 2.91425 6.8611 3.30225 6.8611Z" fill="white"/>
<path d="M21.5743 8.0581H20.3217V4.33962C20.3217 3.83024 20.4145 3.37605 20.6001 2.97703C20.7941 2.57802 21.0724 2.2639 21.4351 2.03468C21.8062 1.80546 22.2617 1.69085 22.8016 1.69085C23.004 1.69085 23.198 1.71207 23.3836 1.75452C23.5776 1.78848 23.7547 1.84366 23.915 1.92007V3.16805C23.7631 3.07466 23.5987 3.00675 23.4215 2.9643C23.2528 2.92185 23.0841 2.90062 22.9154 2.90062C22.5021 2.90062 22.1732 3.03646 21.9285 3.30813C21.6924 3.57131 21.5743 3.93212 21.5743 4.39056V8.0581Z" fill="white"/>
<path d="M40.2559 8.02274C39.7498 8.02274 39.3196 7.92086 38.9654 7.71711C38.6111 7.51336 38.3412 7.2332 38.1556 6.87663C37.9785 6.51158 37.8899 6.09134 37.8899 5.61592V0H39.1425V5.57771C39.1425 5.98522 39.2522 6.30358 39.4715 6.5328C39.6992 6.76202 39.9986 6.87663 40.3698 6.87663C40.5722 6.87663 40.7747 6.84267 40.9771 6.77476C41.188 6.70684 41.3693 6.6177 41.5211 6.50733V7.66617C41.3609 7.76805 41.1669 7.85294 40.9391 7.92086C40.7114 7.98878 40.4836 8.02274 40.2559 8.02274ZM41.5211 2.71245H36.6627V1.61728H41.5211V2.71245Z" fill="white"/>
<path d="M3.45375 26.0651H2.20117V22.3466C2.20117 21.8373 2.29396 21.3831 2.47952 20.9841C2.67352 20.585 2.95188 20.2709 3.31457 20.0417C3.68571 19.8125 4.14119 19.6979 4.68102 19.6979C4.88346 19.6979 5.07746 19.7191 5.26303 19.7615C5.45703 19.7955 5.63416 19.8507 5.79443 19.9271V21.1751C5.6426 21.0817 5.47812 21.0138 5.30099 20.9713C5.13229 20.9289 4.96359 20.9076 4.79489 20.9076C4.38159 20.9076 4.05263 21.0435 3.80801 21.3151C3.57184 21.5783 3.45375 21.9391 3.45375 22.3976V26.0651Z" fill="white"/>
<path d="M21.5247 26.1391C20.9005 26.1391 20.3396 25.9905 19.842 25.6934C19.3443 25.3963 18.9479 25.0015 18.6526 24.5091C18.3574 24.0082 18.2098 23.4564 18.2098 22.8536C18.2098 22.2508 18.3574 21.7032 18.6526 21.2108C18.9479 20.7184 19.3443 20.3279 19.842 20.0393C20.3396 19.7421 20.9005 19.5936 21.5247 19.5936C22.1489 19.5936 22.7098 19.7421 23.2075 20.0393C23.7051 20.3279 24.0973 20.7227 24.3841 21.2236C24.6709 21.716 24.8143 22.2593 24.8143 22.8536C24.8143 23.4564 24.6709 24.0082 24.3841 24.5091C24.0973 25.0015 23.7009 25.3963 23.1948 25.6934C22.6972 25.9905 22.1405 26.1391 21.5247 26.1391ZM21.5247 24.9421C21.9127 24.9421 22.2585 24.8487 22.5622 24.6619C22.8743 24.4751 23.1189 24.2247 23.296 23.9106C23.4732 23.588 23.5617 23.2399 23.5617 22.8663C23.5617 22.4843 23.4732 22.1362 23.296 21.8221C23.1189 21.508 22.8743 21.2575 22.5622 21.0708C22.2585 20.8755 21.9127 20.7779 21.5247 20.7779C21.1367 20.7779 20.7867 20.8755 20.4746 21.0708C20.1709 21.2575 19.9263 21.508 19.7407 21.8221C19.5552 22.1362 19.4624 22.4843 19.4624 22.8663C19.4624 23.2399 19.5552 23.588 19.7407 23.9106C19.9263 24.2247 20.1709 24.4751 20.4746 24.6619C20.7867 24.8487 21.1367 24.9421 21.5247 24.9421Z" fill="white"/>
<path d="M39.2477 26.009C38.6235 26.009 38.0626 25.8604 37.565 25.5633C37.0673 25.2661 36.6709 24.8713 36.3756 24.3789C36.0889 23.8865 35.9455 23.3432 35.9455 22.7489C35.9455 22.1122 36.0846 21.5476 36.363 21.0552C36.6413 20.5628 37.0251 20.1766 37.5144 19.8964C38.0036 19.6078 38.5603 19.4634 39.1845 19.4634C39.6821 19.4634 40.1376 19.5823 40.5509 19.82C40.9726 20.0492 41.31 20.3591 41.5631 20.7496C41.8161 21.1401 41.9427 21.5646 41.9427 22.0231L41.2847 21.692L41.2974 16.751H42.55V22.7489C42.55 23.3602 42.4024 23.9163 42.1071 24.4172C41.8204 24.9096 41.4281 25.3001 40.9305 25.5887C40.4328 25.8689 39.8719 26.009 39.2477 26.009ZM39.2477 24.8247C39.6357 24.8247 39.9858 24.7313 40.2979 24.5445C40.6099 24.3492 40.8546 24.0945 41.0317 23.7804C41.2088 23.4663 41.2974 23.1182 41.2974 22.7362C41.2974 22.3627 41.2088 22.0188 41.0317 21.7047C40.8546 21.3821 40.6099 21.1274 40.2979 20.9406C39.9858 20.7539 39.6357 20.6605 39.2477 20.6605C38.8597 20.6605 38.5097 20.7539 38.1976 20.9406C37.8939 21.1274 37.6493 21.3821 37.4637 21.7047C37.2866 22.0188 37.198 22.3627 37.198 22.7362C37.198 23.1182 37.2866 23.4663 37.4637 23.7804C37.6493 24.0945 37.8939 24.3492 38.1976 24.5445C38.5097 24.7313 38.8597 24.8247 39.2477 24.8247Z" fill="white"/>
<path d="M2.96806 37.5949H4.22064V43.8348H2.96806V37.5949ZM3.58802 36.3596C3.44463 36.3596 3.30967 36.3257 3.18315 36.2578C3.05663 36.1813 2.95541 36.0795 2.8795 35.9521C2.80358 35.8248 2.76562 35.6847 2.76562 35.5319C2.76562 35.3791 2.80358 35.239 2.8795 35.1116C2.95541 34.9843 3.05663 34.8824 3.18315 34.806C3.30967 34.7296 3.44463 34.6914 3.58802 34.6914C3.73985 34.6914 3.87481 34.7296 3.9929 34.806C4.11942 34.8824 4.21642 34.9843 4.2839 35.1116C4.35982 35.239 4.39777 35.3791 4.39777 35.5319C4.39777 35.6847 4.35982 35.8248 4.2839 35.9521C4.21642 36.0795 4.11942 36.1813 3.9929 36.2578C3.87481 36.3257 3.73985 36.3596 3.58802 36.3596Z" fill="white"/>
<path d="M22.6863 44.0003C22.1802 44.0003 21.75 43.8984 21.3957 43.6947C21.0415 43.4909 20.7716 43.2108 20.586 42.8542C20.4089 42.4892 20.3203 42.0689 20.3203 41.5935V35.9776H21.5729V41.5553C21.5729 41.9628 21.6825 42.2812 21.9018 42.5104C22.1296 42.7396 22.429 42.8542 22.8001 42.8542C23.0026 42.8542 23.205 42.8203 23.4074 42.7523C23.6183 42.6844 23.7997 42.5953 23.9515 42.4849V43.6438C23.7912 43.7456 23.5972 43.8305 23.3695 43.8984C23.1417 43.9664 22.914 44.0003 22.6863 44.0003ZM23.9515 38.69H19.093V37.5949H23.9515V38.69Z" fill="white"/>
<path d="M39.5171 43.9749C38.8929 43.9749 38.332 43.8348 37.8343 43.5546C37.3367 43.266 36.9444 42.8754 36.6577 42.383C36.3709 41.8822 36.2275 41.3133 36.2275 40.6766C36.2275 40.0823 36.3582 39.539 36.6197 39.0466C36.8812 38.5457 37.2481 38.1509 37.7205 37.8623C38.1928 37.5652 38.7411 37.4166 39.3653 37.4166C39.9894 37.4166 40.5251 37.5567 40.9721 37.8368C41.4276 38.1085 41.7776 38.482 42.0222 38.9575C42.2753 39.4244 42.4018 39.9465 42.4018 40.5238V41.0332H37.2017L37.4295 40.5238C37.4041 40.9653 37.4758 41.36 37.6445 41.7081C37.8132 42.0562 38.0578 42.3363 38.3784 42.5486C38.6989 42.7523 39.0743 42.8542 39.5044 42.8542C39.8924 42.8542 40.2425 42.7693 40.5546 42.5995C40.8751 42.4297 41.1281 42.175 41.3137 41.8355L42.2753 42.3321C42.0054 42.867 41.63 43.2745 41.1492 43.5546C40.6684 43.8348 40.1244 43.9749 39.5171 43.9749ZM37.4927 40.2182H41.1492C41.1324 39.8871 41.0438 39.5942 40.8835 39.3395C40.7317 39.0848 40.5208 38.8895 40.2509 38.7537C39.9894 38.6179 39.69 38.55 39.3526 38.55C39.0068 38.55 38.6989 38.6221 38.429 38.7664C38.1675 38.9108 37.9566 39.1103 37.7964 39.365C37.6445 39.6197 37.5433 39.9041 37.4927 40.2182Z" fill="white"/>
</svg>
