<svg width="188" height="63" viewBox="0 0 188 63" fill="none" xmlns="http://www.w3.org/2000/svg">
<path d="M0 1.58944V0H27.5504V1.58944L16.4242 1.16152V50.3324H11.1261V1.16152L0 1.58944Z" fill="black"/>
<path d="M164.897 51.3789L167.92 43.8229L155.52 14.8008H160.746L170.206 38.1089L179.174 14.8008L180.219 14.8008L165.942 51.2056C162.669 58.9983 159.079 63.0008 155.574 63.0008L155.574 58.8194C159.177 58.8194 161.609 57.6469 164.159 52.7826C164.385 52.3503 164.63 51.8834 164.897 51.3789Z" fill="black"/>
<path fill-rule="evenodd" clip-rule="evenodd" d="M56.4548 40.8129H55.6594C55.6594 42.4055 50.3568 49.5721 40.8121 49.5721C36.4614 49.4046 32.2163 46.8053 29.6766 42.3748C29.6766 34.9427 36.8351 31.598 40.8121 31.5229C52.0536 31.3105 54.3338 27.5414 54.3338 25.1526C54.3338 20.6402 49.8265 14.8008 39.2213 14.8008C24.374 14.8008 21.7227 27.0106 21.7227 32.85C21.7227 44.529 29.4115 50.3684 40.8121 50.3684C49.2963 50.3684 56.4548 42.9364 56.4548 40.8129ZM40.8121 29.6827C35.6073 29.6827 28.7993 32.784 28.138 38.7893C27.5937 36.9952 27.2904 35.0076 27.2904 32.85C27.2904 27.0106 31.0017 16.458 39.2213 16.458C44.0836 16.458 49.0311 18.6206 49.0311 23.464C49.0311 25.8529 47.4012 29.6827 40.8121 29.6827Z" fill="black"/>
<path d="M183.927 50.2651C185.976 50.2651 187.636 48.6046 187.636 46.5564C187.636 44.5081 185.976 42.8477 183.927 42.8477C181.879 42.8477 180.219 44.5081 180.219 46.5564C180.219 48.6046 181.879 50.2651 183.927 50.2651Z" fill="black"/>
<path d="M86.6083 16.2204V32.1669C86.6083 43.8228 76.012 48.7089 71.7735 48.7089C68.3827 48.7089 67.0052 47.1195 67.0052 41.2915V14.8008L61.707 16.2204V41.2915C61.707 46.8546 64.7767 49.7686 71.7735 49.7686C78.338 49.7686 84.2671 44.4397 86.6083 37.6572V49.7686H91.9065V14.8008L86.6083 16.2204Z" fill="black"/>
<path d="M120.07 49.7686V16.2115L125.335 14.8008H125.368V26.9122C127.71 20.1296 133.639 14.8008 140.203 14.8008C147.2 14.8008 150.27 17.7148 150.27 23.2778V49.7686H144.972V23.2778C144.972 17.4499 143.594 15.8604 140.203 15.8604C135.965 15.8604 125.368 20.7466 125.368 32.4025V49.7686H120.07Z" fill="black"/>
<path d="M94.6484 16.2187V49.7633H99.9466V30.6594C100.575 20.1673 107.452 15.7359 110.282 15.7359C112.655 15.7359 113.619 17.3202 113.619 23.1295V23.1214L117.326 23.1214C117.324 17.5815 115.176 14.6797 110.282 14.6797C105.73 14.6797 101.616 19.8934 99.9466 26.5646V14.799L94.6484 16.2187Z" fill="black"/>
</svg>
