<svg width="188" height="63" viewBox="0 0 188 63" fill="none" xmlns="http://www.w3.org/2000/svg">
<path fill-rule="evenodd" clip-rule="evenodd" d="M0 0V1.58944L11.1261 1.16152V50.3324H16.4242V1.16152L27.5504 1.58944V0H0Z" fill="white"/>
<path d="M167.92 43.8219L164.897 51.3779C164.63 51.8824 164.385 52.3493 164.159 52.7817C161.609 57.646 159.177 58.8184 155.574 58.8184L155.574 62.9998C159.079 62.9999 162.669 58.9973 165.942 51.2046L180.219 14.7998L179.174 14.7998L170.206 38.1079L160.746 14.7998L155.52 14.7998L167.92 43.8219Z" fill="white"/>
<path d="M56.4548 40.812H55.6594C55.6594 42.4045 50.3568 49.5711 40.8121 49.5711C33.9187 49.3057 27.2904 42.9354 27.2904 32.8491C27.2904 27.0096 31.0017 16.457 39.2213 16.457C44.0836 16.457 49.0311 18.6197 49.0311 23.463C49.0311 25.8519 47.4012 29.6817 40.8121 29.6817C35.3362 29.6817 28.0858 33.1145 28.0858 39.7502L29.6766 42.3738C29.6766 34.9418 36.8351 31.597 40.8121 31.5219C52.0536 31.3096 54.3338 27.5405 54.3338 25.1516C54.3338 20.6393 49.8265 14.7998 39.2213 14.7998C24.374 14.7998 21.7227 27.0096 21.7227 32.8491C21.7227 44.528 29.4115 50.3674 40.8121 50.3674C49.2963 50.3674 56.4548 42.9354 56.4548 40.812Z" fill="white"/>
<circle cx="183.927" cy="46.5569" r="3.7087" fill="white"/>
<path d="M86.6083 16.2194V32.1659C86.6083 43.8218 76.012 48.708 71.7735 48.708C68.3827 48.708 67.0052 47.1185 67.0052 41.2905V14.7998L61.707 16.2194V41.2905C61.707 46.8536 64.7767 49.7676 71.7735 49.7676C78.338 49.7676 84.2671 44.4387 86.6083 37.6562V49.7676H91.9065V14.7998L86.6083 16.2194Z" fill="white"/>
<path d="M120.07 16.2105L120.07 49.7676H125.368L125.368 32.4015C125.368 20.7456 135.965 15.8594 140.203 15.8594C143.594 15.8594 144.972 17.4489 144.972 23.2768L144.972 49.7676H150.27L150.27 23.2768C150.27 17.7138 147.2 14.7998 140.203 14.7998C133.639 14.7998 127.71 20.1287 125.368 26.9112L125.368 14.7998L125.335 14.7998L120.07 16.2105Z" fill="white"/>
<path d="M94.6484 16.2194L94.6484 49.7641H99.9466L99.9466 32.398C99.9466 20.7421 99.9466 26.9077 99.9466 26.9077L99.9466 14.7998L94.6484 16.2194Z" fill="white"/>
<path d="M99.9004 21.9974L99.9004 32.2258C99.9004 20.6073 107.316 15.7369 110.282 15.7369C112.655 15.7369 113.619 17.3212 113.619 23.1304V23.1223L117.326 23.1223C117.324 17.5824 115.176 14.6807 110.282 14.6807C105.688 14.6807 101.539 19.9924 99.9004 26.7531V21.9974Z" fill="white"/>
</svg>
